<mxfile host="app.diagrams.net" modified="2023-11-09T08:42:57.273Z" agent="Mozilla/5.0 (Windows NT 10.0; Win64; x64; rv:109.0) Gecko/20100101 Firefox/116.0" etag="xazXA230p71scy8RzoJI" version="22.1.0" type="github">
  <diagram id="C5RBs43oDa-KdzZeNtuy" name="Page-1">
    <mxGraphModel dx="1257" dy="661" grid="1" gridSize="10" guides="1" tooltips="1" connect="1" arrows="1" fold="1" page="1" pageScale="1" pageWidth="827" pageHeight="1169" math="0" shadow="0">
      <root>
        <mxCell id="WIyWlLk6GJQsqaUBKTNV-0" />
        <mxCell id="WIyWlLk6GJQsqaUBKTNV-1" parent="WIyWlLk6GJQsqaUBKTNV-0" />
        <mxCell id="wzvjlH46-cBcdt1pob5m-2" style="edgeStyle=orthogonalEdgeStyle;rounded=0;orthogonalLoop=1;jettySize=auto;html=1;entryX=0.5;entryY=0;entryDx=0;entryDy=0;" edge="1" parent="WIyWlLk6GJQsqaUBKTNV-1" source="wzvjlH46-cBcdt1pob5m-0" target="wzvjlH46-cBcdt1pob5m-1">
          <mxGeometry relative="1" as="geometry" />
        </mxCell>
        <mxCell id="wzvjlH46-cBcdt1pob5m-0" value="Start" style="ellipse;whiteSpace=wrap;html=1;" vertex="1" parent="WIyWlLk6GJQsqaUBKTNV-1">
          <mxGeometry x="320" y="20" width="120" height="80" as="geometry" />
        </mxCell>
        <mxCell id="wzvjlH46-cBcdt1pob5m-4" style="edgeStyle=orthogonalEdgeStyle;rounded=0;orthogonalLoop=1;jettySize=auto;html=1;entryX=0.5;entryY=0;entryDx=0;entryDy=0;" edge="1" parent="WIyWlLk6GJQsqaUBKTNV-1" source="wzvjlH46-cBcdt1pob5m-1" target="wzvjlH46-cBcdt1pob5m-3">
          <mxGeometry relative="1" as="geometry" />
        </mxCell>
        <mxCell id="wzvjlH46-cBcdt1pob5m-1" value="&lt;div&gt;a,b,c&lt;/div&gt;&lt;div&gt;(3 cạnh của tam giác)&lt;br&gt;&lt;/div&gt;" style="shape=parallelogram;perimeter=parallelogramPerimeter;whiteSpace=wrap;html=1;fixedSize=1;" vertex="1" parent="WIyWlLk6GJQsqaUBKTNV-1">
          <mxGeometry x="280" y="160" width="250" height="90" as="geometry" />
        </mxCell>
        <mxCell id="wzvjlH46-cBcdt1pob5m-7" style="edgeStyle=orthogonalEdgeStyle;rounded=0;orthogonalLoop=1;jettySize=auto;html=1;entryX=0;entryY=0.5;entryDx=0;entryDy=0;" edge="1" parent="WIyWlLk6GJQsqaUBKTNV-1" source="wzvjlH46-cBcdt1pob5m-3" target="wzvjlH46-cBcdt1pob5m-6">
          <mxGeometry relative="1" as="geometry" />
        </mxCell>
        <mxCell id="wzvjlH46-cBcdt1pob5m-8" value="false" style="edgeLabel;html=1;align=center;verticalAlign=middle;resizable=0;points=[];" vertex="1" connectable="0" parent="wzvjlH46-cBcdt1pob5m-7">
          <mxGeometry x="-0.1667" y="1" relative="1" as="geometry">
            <mxPoint as="offset" />
          </mxGeometry>
        </mxCell>
        <mxCell id="wzvjlH46-cBcdt1pob5m-9" style="edgeStyle=orthogonalEdgeStyle;rounded=0;orthogonalLoop=1;jettySize=auto;html=1;" edge="1" parent="WIyWlLk6GJQsqaUBKTNV-1" source="wzvjlH46-cBcdt1pob5m-3" target="wzvjlH46-cBcdt1pob5m-5">
          <mxGeometry relative="1" as="geometry" />
        </mxCell>
        <mxCell id="wzvjlH46-cBcdt1pob5m-10" value="True" style="edgeLabel;html=1;align=center;verticalAlign=middle;resizable=0;points=[];" vertex="1" connectable="0" parent="wzvjlH46-cBcdt1pob5m-9">
          <mxGeometry x="-0.2941" relative="1" as="geometry">
            <mxPoint as="offset" />
          </mxGeometry>
        </mxCell>
        <mxCell id="wzvjlH46-cBcdt1pob5m-3" value="&lt;div align=&quot;center&quot; style=&quot;font-family: Consolas, &amp;quot;Courier New&amp;quot;, monospace; font-weight: normal; font-size: 14px; line-height: 116%;&quot;&gt;&lt;div style=&quot;line-height: 116%;&quot;&gt;a + b &amp;gt; c &amp;amp;&amp;amp;&amp;nbsp;&lt;/div&gt;&lt;div style=&quot;line-height: 116%;&quot;&gt;&lt;span style=&quot;background-color: rgb(255, 255, 255);&quot;&gt;a + c &amp;gt; b &amp;amp;&amp;amp;&lt;/span&gt;&lt;/div&gt;&lt;div style=&quot;line-height: 116%;&quot;&gt;&lt;span style=&quot;background-color: rgb(255, 255, 255);&quot;&gt;&amp;nbsp;b + c &amp;gt; a)&lt;/span&gt;&lt;/div&gt;&lt;/div&gt;" style="rhombus;whiteSpace=wrap;html=1;align=center;" vertex="1" parent="WIyWlLk6GJQsqaUBKTNV-1">
          <mxGeometry x="290" y="280" width="230" height="150" as="geometry" />
        </mxCell>
        <mxCell id="wzvjlH46-cBcdt1pob5m-14" value="false" style="edgeStyle=orthogonalEdgeStyle;rounded=0;orthogonalLoop=1;jettySize=auto;html=1;entryX=0.5;entryY=0;entryDx=0;entryDy=0;" edge="1" parent="WIyWlLk6GJQsqaUBKTNV-1" source="wzvjlH46-cBcdt1pob5m-5" target="wzvjlH46-cBcdt1pob5m-12">
          <mxGeometry relative="1" as="geometry" />
        </mxCell>
        <mxCell id="wzvjlH46-cBcdt1pob5m-22" value="True" style="edgeStyle=orthogonalEdgeStyle;rounded=0;orthogonalLoop=1;jettySize=auto;html=1;entryX=0;entryY=0.5;entryDx=0;entryDy=0;" edge="1" parent="WIyWlLk6GJQsqaUBKTNV-1" source="wzvjlH46-cBcdt1pob5m-5" target="wzvjlH46-cBcdt1pob5m-21">
          <mxGeometry relative="1" as="geometry" />
        </mxCell>
        <mxCell id="wzvjlH46-cBcdt1pob5m-5" value="&#xa;&lt;div style=&quot;color: rgb(212, 212, 212); background-color: rgb(30, 30, 30); font-family: Consolas, &amp;quot;Courier New&amp;quot;, monospace; font-weight: normal; font-size: 14px; line-height: 19px;&quot;&gt;&lt;div&gt;&lt;span style=&quot;color: #d4d4d4;&quot;&gt;(&lt;/span&gt;&lt;span style=&quot;color: #c8c8c8;&quot;&gt;a&lt;/span&gt;&lt;span style=&quot;color: #d4d4d4;&quot;&gt; == &lt;/span&gt;&lt;span style=&quot;color: #c8c8c8;&quot;&gt;b&lt;/span&gt;&lt;span style=&quot;color: #d4d4d4;&quot;&gt;)&amp;amp;&amp;amp;(&lt;/span&gt;&lt;span style=&quot;color: #c8c8c8;&quot;&gt;a&lt;/span&gt;&lt;span style=&quot;color: #d4d4d4;&quot;&gt;==&lt;/span&gt;&lt;span style=&quot;color: #c8c8c8;&quot;&gt;c&lt;/span&gt;&lt;span style=&quot;color: #d4d4d4;&quot;&gt;)&lt;/span&gt;&lt;/div&gt;&lt;/div&gt;&#xa;&#xa;" style="rhombus;whiteSpace=wrap;html=1;" vertex="1" parent="WIyWlLk6GJQsqaUBKTNV-1">
          <mxGeometry x="290" y="550" width="215" height="170" as="geometry" />
        </mxCell>
        <mxCell id="wzvjlH46-cBcdt1pob5m-23" style="edgeStyle=orthogonalEdgeStyle;rounded=0;orthogonalLoop=1;jettySize=auto;html=1;entryX=0.5;entryY=0;entryDx=0;entryDy=0;" edge="1" parent="WIyWlLk6GJQsqaUBKTNV-1" source="wzvjlH46-cBcdt1pob5m-6" target="wzvjlH46-cBcdt1pob5m-11">
          <mxGeometry relative="1" as="geometry" />
        </mxCell>
        <mxCell id="wzvjlH46-cBcdt1pob5m-6" value="Đó ko phải 3 cạnh tam giac" style="rhombus;whiteSpace=wrap;html=1;" vertex="1" parent="WIyWlLk6GJQsqaUBKTNV-1">
          <mxGeometry x="800" y="307.5" width="170" height="132.5" as="geometry" />
        </mxCell>
        <mxCell id="wzvjlH46-cBcdt1pob5m-11" value="end" style="ellipse;whiteSpace=wrap;html=1;" vertex="1" parent="WIyWlLk6GJQsqaUBKTNV-1">
          <mxGeometry x="1320" y="850" width="200" height="170" as="geometry" />
        </mxCell>
        <mxCell id="wzvjlH46-cBcdt1pob5m-28" value="true" style="edgeStyle=orthogonalEdgeStyle;rounded=0;orthogonalLoop=1;jettySize=auto;html=1;entryX=0;entryY=0.5;entryDx=0;entryDy=0;" edge="1" parent="WIyWlLk6GJQsqaUBKTNV-1" source="wzvjlH46-cBcdt1pob5m-12" target="wzvjlH46-cBcdt1pob5m-27">
          <mxGeometry relative="1" as="geometry" />
        </mxCell>
        <mxCell id="wzvjlH46-cBcdt1pob5m-12" value="&#xa;&lt;div style=&quot;color: rgb(212, 212, 212); background-color: rgb(30, 30, 30); font-family: Consolas, &amp;quot;Courier New&amp;quot;, monospace; font-weight: normal; font-size: 14px; line-height: 19px;&quot;&gt;&lt;div&gt;&lt;span style=&quot;color: #d4d4d4;&quot;&gt;((&lt;/span&gt;&lt;span style=&quot;color: #c8c8c8;&quot;&gt;a&lt;/span&gt;&lt;span style=&quot;color: #d4d4d4;&quot;&gt; * &lt;/span&gt;&lt;span style=&quot;color: #c8c8c8;&quot;&gt;a&lt;/span&gt;&lt;span style=&quot;color: #d4d4d4;&quot;&gt; + &lt;/span&gt;&lt;span style=&quot;color: #c8c8c8;&quot;&gt;b&lt;/span&gt;&lt;span style=&quot;color: #d4d4d4;&quot;&gt; * &lt;/span&gt;&lt;span style=&quot;color: #c8c8c8;&quot;&gt;b&lt;/span&gt;&lt;span style=&quot;color: #d4d4d4;&quot;&gt; == &lt;/span&gt;&lt;span style=&quot;color: #c8c8c8;&quot;&gt;c&lt;/span&gt;&lt;span style=&quot;color: #d4d4d4;&quot;&gt; * &lt;/span&gt;&lt;span style=&quot;color: #c8c8c8;&quot;&gt;c&lt;/span&gt;&lt;span style=&quot;color: #d4d4d4;&quot;&gt;)&amp;amp;&amp;amp;(&lt;/span&gt;&lt;span style=&quot;color: #c8c8c8;&quot;&gt;a&lt;/span&gt;&lt;span style=&quot;color: #d4d4d4;&quot;&gt;==&lt;/span&gt;&lt;span style=&quot;color: #c8c8c8;&quot;&gt;b&lt;/span&gt;&lt;span style=&quot;color: #d4d4d4;&quot;&gt;)) || ((&lt;/span&gt;&lt;span style=&quot;color: #c8c8c8;&quot;&gt;a&lt;/span&gt;&lt;span style=&quot;color: #d4d4d4;&quot;&gt; * &lt;/span&gt;&lt;span style=&quot;color: #c8c8c8;&quot;&gt;a&lt;/span&gt;&lt;span style=&quot;color: #d4d4d4;&quot;&gt; + &lt;/span&gt;&lt;span style=&quot;color: #c8c8c8;&quot;&gt;c&lt;/span&gt;&lt;span style=&quot;color: #d4d4d4;&quot;&gt; * &lt;/span&gt;&lt;span style=&quot;color: #c8c8c8;&quot;&gt;c&lt;/span&gt;&lt;span style=&quot;color: #d4d4d4;&quot;&gt; == &lt;/span&gt;&lt;span style=&quot;color: #c8c8c8;&quot;&gt;b&lt;/span&gt;&lt;span style=&quot;color: #d4d4d4;&quot;&gt; * &lt;/span&gt;&lt;span style=&quot;color: #c8c8c8;&quot;&gt;b&lt;/span&gt;&lt;span style=&quot;color: #d4d4d4;&quot;&gt;)&amp;amp;&amp;amp;(&lt;/span&gt;&lt;span style=&quot;color: #c8c8c8;&quot;&gt;a&lt;/span&gt;&lt;span style=&quot;color: #d4d4d4;&quot;&gt;==&lt;/span&gt;&lt;span style=&quot;color: #c8c8c8;&quot;&gt;c&lt;/span&gt;&lt;span style=&quot;color: #d4d4d4;&quot;&gt;)) || ((&lt;/span&gt;&lt;span style=&quot;color: #c8c8c8;&quot;&gt;b&lt;/span&gt;&lt;span style=&quot;color: #d4d4d4;&quot;&gt; * &lt;/span&gt;&lt;span style=&quot;color: #c8c8c8;&quot;&gt;b&lt;/span&gt;&lt;span style=&quot;color: #d4d4d4;&quot;&gt; + &lt;/span&gt;&lt;span style=&quot;color: #c8c8c8;&quot;&gt;c&lt;/span&gt;&lt;span style=&quot;color: #d4d4d4;&quot;&gt; * &lt;/span&gt;&lt;span style=&quot;color: #c8c8c8;&quot;&gt;c&lt;/span&gt;&lt;span style=&quot;color: #d4d4d4;&quot;&gt; == &lt;/span&gt;&lt;span style=&quot;color: #c8c8c8;&quot;&gt;a&lt;/span&gt;&lt;span style=&quot;color: #d4d4d4;&quot;&gt; * &lt;/span&gt;&lt;span style=&quot;color: #c8c8c8;&quot;&gt;a&lt;/span&gt;&lt;span style=&quot;color: #d4d4d4;&quot;&gt;)&amp;amp;&amp;amp;(&lt;/span&gt;&lt;span style=&quot;color: #c8c8c8;&quot;&gt;b&lt;/span&gt;&lt;span style=&quot;color: #d4d4d4;&quot;&gt;==&lt;/span&gt;&lt;span style=&quot;color: #c8c8c8;&quot;&gt;c&lt;/span&gt;&lt;span style=&quot;color: #d4d4d4;&quot;&gt;)&lt;/span&gt;&lt;/div&gt;&lt;/div&gt;&#xa;&#xa;" style="rhombus;whiteSpace=wrap;html=1;" vertex="1" parent="WIyWlLk6GJQsqaUBKTNV-1">
          <mxGeometry x="255" y="800" width="285" height="170" as="geometry" />
        </mxCell>
        <mxCell id="wzvjlH46-cBcdt1pob5m-19" value="false" style="edgeStyle=orthogonalEdgeStyle;rounded=0;orthogonalLoop=1;jettySize=auto;html=1;entryX=0.5;entryY=0;entryDx=0;entryDy=0;" edge="1" parent="WIyWlLk6GJQsqaUBKTNV-1" source="wzvjlH46-cBcdt1pob5m-15" target="wzvjlH46-cBcdt1pob5m-18">
          <mxGeometry relative="1" as="geometry" />
        </mxCell>
        <mxCell id="wzvjlH46-cBcdt1pob5m-29" value="true" style="edgeStyle=orthogonalEdgeStyle;rounded=0;orthogonalLoop=1;jettySize=auto;html=1;" edge="1" parent="WIyWlLk6GJQsqaUBKTNV-1" source="wzvjlH46-cBcdt1pob5m-15" target="wzvjlH46-cBcdt1pob5m-30">
          <mxGeometry relative="1" as="geometry">
            <mxPoint x="810" y="1180" as="targetPoint" />
          </mxGeometry>
        </mxCell>
        <mxCell id="wzvjlH46-cBcdt1pob5m-15" value="&#xa;&lt;div style=&quot;color: rgb(212, 212, 212); background-color: rgb(30, 30, 30); font-family: Consolas, &amp;quot;Courier New&amp;quot;, monospace; font-weight: normal; font-size: 14px; line-height: 19px;&quot;&gt;&lt;div&gt;&lt;span style=&quot;color: #c8c8c8;&quot;&gt;a&lt;/span&gt;&lt;span style=&quot;color: #d4d4d4;&quot;&gt; == &lt;/span&gt;&lt;span style=&quot;color: #c8c8c8;&quot;&gt;b&lt;/span&gt;&lt;span style=&quot;color: #d4d4d4;&quot;&gt; || &lt;/span&gt;&lt;span style=&quot;color: #c8c8c8;&quot;&gt;a&lt;/span&gt;&lt;span style=&quot;color: #d4d4d4;&quot;&gt; == &lt;/span&gt;&lt;span style=&quot;color: #c8c8c8;&quot;&gt;c&lt;/span&gt;&lt;span style=&quot;color: #d4d4d4;&quot;&gt; || &lt;/span&gt;&lt;span style=&quot;color: #c8c8c8;&quot;&gt;b&lt;/span&gt;&lt;span style=&quot;color: #d4d4d4;&quot;&gt; == &lt;/span&gt;&lt;span style=&quot;color: #c8c8c8;&quot;&gt;c&lt;/span&gt;&lt;/div&gt;&lt;/div&gt;&#xa;&#xa;" style="rhombus;whiteSpace=wrap;html=1;" vertex="1" parent="WIyWlLk6GJQsqaUBKTNV-1">
          <mxGeometry x="259" y="1090" width="261" height="210" as="geometry" />
        </mxCell>
        <mxCell id="wzvjlH46-cBcdt1pob5m-16" style="edgeStyle=orthogonalEdgeStyle;rounded=0;orthogonalLoop=1;jettySize=auto;html=1;entryX=0.471;entryY=0.023;entryDx=0;entryDy=0;entryPerimeter=0;" edge="1" parent="WIyWlLk6GJQsqaUBKTNV-1" source="wzvjlH46-cBcdt1pob5m-12" target="wzvjlH46-cBcdt1pob5m-15">
          <mxGeometry relative="1" as="geometry" />
        </mxCell>
        <mxCell id="wzvjlH46-cBcdt1pob5m-17" value="false" style="edgeLabel;html=1;align=center;verticalAlign=middle;resizable=0;points=[];" vertex="1" connectable="0" parent="wzvjlH46-cBcdt1pob5m-16">
          <mxGeometry x="-0.24" y="-1" relative="1" as="geometry">
            <mxPoint as="offset" />
          </mxGeometry>
        </mxCell>
        <mxCell id="wzvjlH46-cBcdt1pob5m-32" value="true" style="edgeStyle=orthogonalEdgeStyle;rounded=0;orthogonalLoop=1;jettySize=auto;html=1;entryX=0;entryY=0.5;entryDx=0;entryDy=0;" edge="1" parent="WIyWlLk6GJQsqaUBKTNV-1" source="wzvjlH46-cBcdt1pob5m-18" target="wzvjlH46-cBcdt1pob5m-31">
          <mxGeometry relative="1" as="geometry" />
        </mxCell>
        <mxCell id="wzvjlH46-cBcdt1pob5m-37" value="flalse" style="edgeStyle=orthogonalEdgeStyle;rounded=0;orthogonalLoop=1;jettySize=auto;html=1;entryX=0;entryY=0.5;entryDx=0;entryDy=0;" edge="1" parent="WIyWlLk6GJQsqaUBKTNV-1" source="wzvjlH46-cBcdt1pob5m-18" target="wzvjlH46-cBcdt1pob5m-36">
          <mxGeometry relative="1" as="geometry">
            <Array as="points">
              <mxPoint x="389" y="1880" />
              <mxPoint x="650" y="1880" />
              <mxPoint x="650" y="1865" />
            </Array>
          </mxGeometry>
        </mxCell>
        <mxCell id="wzvjlH46-cBcdt1pob5m-18" value="&#xa;&lt;div style=&quot;color: rgb(212, 212, 212); background-color: rgb(30, 30, 30); font-family: Consolas, &amp;quot;Courier New&amp;quot;, monospace; font-weight: normal; font-size: 14px; line-height: 19px;&quot;&gt;&lt;div&gt;&lt;span style=&quot;color: #d4d4d4;&quot;&gt;(&lt;/span&gt;&lt;span style=&quot;color: #c8c8c8;&quot;&gt;a&lt;/span&gt;&lt;span style=&quot;color: #d4d4d4;&quot;&gt; * &lt;/span&gt;&lt;span style=&quot;color: #c8c8c8;&quot;&gt;a&lt;/span&gt;&lt;span style=&quot;color: #d4d4d4;&quot;&gt; + &lt;/span&gt;&lt;span style=&quot;color: #c8c8c8;&quot;&gt;b&lt;/span&gt;&lt;span style=&quot;color: #d4d4d4;&quot;&gt; * &lt;/span&gt;&lt;span style=&quot;color: #c8c8c8;&quot;&gt;b&lt;/span&gt;&lt;span style=&quot;color: #d4d4d4;&quot;&gt; == &lt;/span&gt;&lt;span style=&quot;color: #c8c8c8;&quot;&gt;c&lt;/span&gt;&lt;span style=&quot;color: #d4d4d4;&quot;&gt; * &lt;/span&gt;&lt;span style=&quot;color: #c8c8c8;&quot;&gt;c&lt;/span&gt;&lt;span style=&quot;color: #d4d4d4;&quot;&gt;) || (&lt;/span&gt;&lt;span style=&quot;color: #c8c8c8;&quot;&gt;a&lt;/span&gt;&lt;span style=&quot;color: #d4d4d4;&quot;&gt; * &lt;/span&gt;&lt;span style=&quot;color: #c8c8c8;&quot;&gt;a&lt;/span&gt;&lt;span style=&quot;color: #d4d4d4;&quot;&gt; + &lt;/span&gt;&lt;span style=&quot;color: #c8c8c8;&quot;&gt;c&lt;/span&gt;&lt;span style=&quot;color: #d4d4d4;&quot;&gt; * &lt;/span&gt;&lt;span style=&quot;color: #c8c8c8;&quot;&gt;c&lt;/span&gt;&lt;span style=&quot;color: #d4d4d4;&quot;&gt; == &lt;/span&gt;&lt;span style=&quot;color: #c8c8c8;&quot;&gt;b&lt;/span&gt;&lt;span style=&quot;color: #d4d4d4;&quot;&gt; * &lt;/span&gt;&lt;span style=&quot;color: #c8c8c8;&quot;&gt;b&lt;/span&gt;&lt;span style=&quot;color: #d4d4d4;&quot;&gt;) || (&lt;/span&gt;&lt;span style=&quot;color: #c8c8c8;&quot;&gt;b&lt;/span&gt;&lt;span style=&quot;color: #d4d4d4;&quot;&gt; * &lt;/span&gt;&lt;span style=&quot;color: #c8c8c8;&quot;&gt;b&lt;/span&gt;&lt;span style=&quot;color: #d4d4d4;&quot;&gt; + &lt;/span&gt;&lt;span style=&quot;color: #c8c8c8;&quot;&gt;c&lt;/span&gt;&lt;span style=&quot;color: #d4d4d4;&quot;&gt; * &lt;/span&gt;&lt;span style=&quot;color: #c8c8c8;&quot;&gt;c&lt;/span&gt;&lt;span style=&quot;color: #d4d4d4;&quot;&gt; == &lt;/span&gt;&lt;span style=&quot;color: #c8c8c8;&quot;&gt;a&lt;/span&gt;&lt;span style=&quot;color: #d4d4d4;&quot;&gt; * &lt;/span&gt;&lt;span style=&quot;color: #c8c8c8;&quot;&gt;a&lt;/span&gt;&lt;span style=&quot;color: #d4d4d4;&quot;&gt;)&lt;/span&gt;&lt;/div&gt;&lt;/div&gt;&#xa;&#xa;" style="rhombus;whiteSpace=wrap;html=1;" vertex="1" parent="WIyWlLk6GJQsqaUBKTNV-1">
          <mxGeometry x="259" y="1490" width="260" height="190" as="geometry" />
        </mxCell>
        <mxCell id="wzvjlH46-cBcdt1pob5m-21" value="Đó là tam giác đều" style="rounded=1;whiteSpace=wrap;html=1;" vertex="1" parent="WIyWlLk6GJQsqaUBKTNV-1">
          <mxGeometry x="780" y="610" width="190" height="70" as="geometry" />
        </mxCell>
        <mxCell id="wzvjlH46-cBcdt1pob5m-26" style="edgeStyle=orthogonalEdgeStyle;rounded=0;orthogonalLoop=1;jettySize=auto;html=1;entryX=0.278;entryY=0.036;entryDx=0;entryDy=0;entryPerimeter=0;" edge="1" parent="WIyWlLk6GJQsqaUBKTNV-1" source="wzvjlH46-cBcdt1pob5m-21" target="wzvjlH46-cBcdt1pob5m-11">
          <mxGeometry relative="1" as="geometry" />
        </mxCell>
        <mxCell id="wzvjlH46-cBcdt1pob5m-33" style="edgeStyle=orthogonalEdgeStyle;rounded=0;orthogonalLoop=1;jettySize=auto;html=1;entryX=0;entryY=0.5;entryDx=0;entryDy=0;" edge="1" parent="WIyWlLk6GJQsqaUBKTNV-1" source="wzvjlH46-cBcdt1pob5m-27" target="wzvjlH46-cBcdt1pob5m-11">
          <mxGeometry relative="1" as="geometry" />
        </mxCell>
        <mxCell id="wzvjlH46-cBcdt1pob5m-27" value="Tam giác vuông cân" style="rounded=1;whiteSpace=wrap;html=1;" vertex="1" parent="WIyWlLk6GJQsqaUBKTNV-1">
          <mxGeometry x="810" y="850" width="210" height="100" as="geometry" />
        </mxCell>
        <mxCell id="wzvjlH46-cBcdt1pob5m-34" style="edgeStyle=orthogonalEdgeStyle;rounded=0;orthogonalLoop=1;jettySize=auto;html=1;entryX=0;entryY=1;entryDx=0;entryDy=0;" edge="1" parent="WIyWlLk6GJQsqaUBKTNV-1" source="wzvjlH46-cBcdt1pob5m-30" target="wzvjlH46-cBcdt1pob5m-11">
          <mxGeometry relative="1" as="geometry" />
        </mxCell>
        <mxCell id="wzvjlH46-cBcdt1pob5m-30" value="tam giác cân" style="rounded=0;whiteSpace=wrap;html=1;" vertex="1" parent="WIyWlLk6GJQsqaUBKTNV-1">
          <mxGeometry x="827" y="1150" width="203" height="90" as="geometry" />
        </mxCell>
        <mxCell id="wzvjlH46-cBcdt1pob5m-35" style="edgeStyle=orthogonalEdgeStyle;rounded=0;orthogonalLoop=1;jettySize=auto;html=1;" edge="1" parent="WIyWlLk6GJQsqaUBKTNV-1" source="wzvjlH46-cBcdt1pob5m-31" target="wzvjlH46-cBcdt1pob5m-11">
          <mxGeometry relative="1" as="geometry" />
        </mxCell>
        <mxCell id="wzvjlH46-cBcdt1pob5m-31" value="tam giác vuông" style="rounded=0;whiteSpace=wrap;html=1;" vertex="1" parent="WIyWlLk6GJQsqaUBKTNV-1">
          <mxGeometry x="810" y="1530" width="210" height="90" as="geometry" />
        </mxCell>
        <mxCell id="wzvjlH46-cBcdt1pob5m-36" value="tam giác thường" style="rounded=1;whiteSpace=wrap;html=1;" vertex="1" parent="WIyWlLk6GJQsqaUBKTNV-1">
          <mxGeometry x="780" y="1820" width="250" height="90" as="geometry" />
        </mxCell>
        <mxCell id="wzvjlH46-cBcdt1pob5m-38" style="edgeStyle=orthogonalEdgeStyle;rounded=0;orthogonalLoop=1;jettySize=auto;html=1;entryX=0.787;entryY=0.999;entryDx=0;entryDy=0;entryPerimeter=0;" edge="1" parent="WIyWlLk6GJQsqaUBKTNV-1" source="wzvjlH46-cBcdt1pob5m-36" target="wzvjlH46-cBcdt1pob5m-11">
          <mxGeometry relative="1" as="geometry" />
        </mxCell>
      </root>
    </mxGraphModel>
  </diagram>
</mxfile>
